<?xml version="1.0" encoding="UTF-8" standalone="no"?>
<svg
   xmlns:dc="http://purl.org/dc/elements/1.1/"
   xmlns:cc="http://creativecommons.org/ns#"
   xmlns:rdf="http://www.w3.org/1999/02/22-rdf-syntax-ns#"
   xmlns:svg="http://www.w3.org/2000/svg"
   xmlns="http://www.w3.org/2000/svg"
   viewBox="0 0 1122.52 793.70135"
   xml:space="preserve"
   id="svg2"
   version="1.1"><metadata
     id="metadata8"><rdf:RDF><cc:Work
         rdf:about=""><dc:format>image/svg+xml</dc:format><dc:type
           rdf:resource="http://purl.org/dc/dcmitype/StillImage" /></cc:Work></rdf:RDF></metadata><defs
     id="defs6"><clipPath
       id="clipPath18"
       clipPathUnits="userSpaceOnUse"><path
         id="path16"
         d="M 0,595.276 H 841.89 V 0 H 0 Z" /></clipPath></defs><g
     transform="matrix(1.3333333,0,0,-1.3333333,0,793.70133)"
     id="g10"><g
       id="g12"><g
         clip-path="url(#clipPath18)"
         id="g14"><g
           transform="translate(383.1519,355.6154)"
           id="g20"><path
             id="path22"
             style="fill:#008272;fill-opacity:1;fill-rule:nonzero;stroke:none"
             d="m 0,0 h 11.068 l 8.494,-28.005 h 0.104 L 27.593,0 h 11.326 v -38.096 h -8.082 v 25.998 h -0.103 c -0.567,-3.295 -1.288,-5.714 -2.11,-8.494 l -5.715,-17.504 h -7.413 l -5.663,17.504 c -0.875,2.883 -1.391,4.53 -2.214,8.906 H 7.516 v -26.41 H 0 Z" /></g><g
           transform="translate(448.5186,332.0886)"
           id="g24"><path
             id="path26"
             style="fill:#008272;fill-opacity:1;fill-rule:nonzero;stroke:none"
             d="M 0,0 -4.375,12.974 H -4.479 L -8.957,0 Z m -8.185,23.682 h 7.98 L 13.283,-14.569 H 4.789 l -2.832,8.495 h -12.974 l -2.933,-8.495 h -7.722 z" /></g><g
           transform="translate(471.6211,333.6853)"
           id="g28"><path
             id="path30"
             style="fill:#008272;fill-opacity:1;fill-rule:nonzero;stroke:none"
             d="m 0,0 -13.127,21.93 h 8.648 L 4.222,7.104 12.974,21.93 H 21.52 L 8.341,0 V -16.166 H 0 Z" /></g><g
           transform="translate(394.478,301.7839)"
           id="g32"><path
             id="path34"
             style="fill:#008272;fill-opacity:1;fill-rule:nonzero;stroke:none"
             d="M 0,0 H -11.326 V 7.001 H 19.769 V 0 H 8.392 V -31.094 H 0 Z" /></g><g
           transform="translate(433.2334,291.5393)"
           id="g36"><path
             id="path38"
             style="fill:#008272;fill-opacity:1;fill-rule:nonzero;stroke:none"
             d="M 0,0 C 4.84,0 7.156,1.39 7.156,5.251 7.156,9.009 4.84,10.398 0,10.398 H -5.714 V 0 Z M -13.951,17.246 H 0.36 c 9.37,0 14.982,-3.346 14.982,-11.789 0,-6.023 -2.831,-9.317 -7.929,-10.862 L 15.908,-20.85 H 7.053 l -7.927,14.364 h -4.84 V -20.85 h -8.237 z" /></g><g
           transform="translate(455.5664,308.7849)"
           id="g40"><path
             id="path42"
             style="fill:#008272;fill-opacity:1;fill-rule:nonzero;stroke:none"
             d="M 0,0 H 25.946 V -7.001 H 8.391 v -8.186 h 12.715 v -6.641 H 8.391 V -31.3 h 18.481 v -6.795 l -26.872,0 z" /></g><g
           transform="translate(488.1445,308.7849)"
           id="g44"><path
             id="path46"
             style="fill:#008272;fill-opacity:1;fill-rule:nonzero;stroke:none"
             d="M 0,0 H 25.946 V -7.001 H 8.392 v -8.186 h 12.715 v -6.641 H 8.392 V -31.3 h 18.481 v -6.795 l -26.873,0 z" /></g><g
           transform="translate(383.1519,261.1545)"
           id="g48"><path
             id="path50"
             style="fill:#008272;fill-opacity:1;fill-rule:nonzero;stroke:none"
             d="M 0,0 H 8.391 V -14.774 H 23.372 V 0 h 8.392 v -38.096 h -8.392 v 16.269 H 8.391 V -38.096 H 0 Z" /></g><g
           transform="translate(448.4697,242.1066)"
           id="g52"><path
             id="path54"
             style="fill:#008272;fill-opacity:1;fill-rule:nonzero;stroke:none"
             d="m 0,0 c 0,7.979 -3.706,12.818 -9.576,12.818 -5.919,0 -9.574,-4.839 -9.574,-12.818 0,-7.979 3.655,-13.024 9.574,-13.024 C -3.706,-13.024 0,-7.979 0,0 m -27.542,0 c 0,13.385 8.752,19.769 17.966,19.769 9.165,0 17.916,-6.384 17.916,-19.769 0,-13.385 -8.751,-19.769 -17.916,-19.769 -9.214,0 -17.966,6.384 -17.966,19.769" /></g><g
           transform="translate(462.2559,237.6281)"
           id="g56"><path
             id="path58"
             style="fill:#008272;fill-opacity:1;fill-rule:nonzero;stroke:none"
             d="M 0,0 V 23.526 H 8.392 V 0.205 c 0,-5.508 2.111,-8.597 7.104,-8.597 4.942,0 7.002,3.038 7.002,8.597 v 23.321 h 8.236 V 0.052 c 0,-9.37 -4.736,-15.24 -15.341,-15.24 C 4.788,-15.188 0,-9.318 0,0" /></g><g
           transform="translate(497.5127,231.7082)"
           id="g60"><path
             id="path62"
             style="fill:#008272;fill-opacity:1;fill-rule:nonzero;stroke:none"
             d="m 0,0 6.332,3.758 c 2.111,-4.17 5.92,-6.487 10.296,-6.487 3.861,0 6.642,1.441 6.642,4.376 0,2.883 -2.729,4.118 -7.723,5.508 -6.795,1.905 -13.9,3.656 -13.9,11.635 0,7.104 5.56,11.377 13.746,11.377 7.825,0 12.459,-3.758 15.135,-7.824 l -5.817,-4.428 c -2.008,3.243 -5.663,5.405 -9.369,5.405 -3.553,0 -5.509,-1.545 -5.509,-3.809 0,-3.037 2.832,-4.118 7.825,-5.509 C 24.351,12.2 31.455,10.09 31.455,2.214 31.455,-3.913 26.821,-9.37 16.216,-9.37 7.979,-9.37 2.831,-5.457 0,0" /></g><g
           transform="translate(535.1865,261.1545)"
           id="g64"><path
             id="path66"
             style="fill:#008272;fill-opacity:1;fill-rule:nonzero;stroke:none"
             d="M 0,0 H 25.945 V -7.001 H 8.391 v -8.186 h 12.715 v -6.64 H 8.391 v -9.474 h 18.481 v -6.795 l -26.872,0 z" /></g><g
           transform="translate(383.1519,185.6555)"
           id="g68"><path
             id="path70"
             style="fill:#2b2b2a;fill-opacity:1;fill-rule:nonzero;stroke:none"
             d="m 0,0 2.523,0.617 c 1.493,-5.663 5.508,-8.546 11.068,-8.546 6.178,0 10.09,3.038 10.09,7.62 0,4.221 -1.75,6.435 -10.553,9.266 -8.494,2.729 -11.995,5.045 -11.995,10.914 0,5.097 4.737,9.421 11.429,9.421 7.001,0 11.017,-3.655 12.612,-8.958 l -2.47,-0.721 c -1.802,5.355 -5.2,7.363 -10.194,7.363 -5.457,0 -8.803,-3.192 -8.803,-6.951 0,-4.581 2.471,-6.126 11.171,-8.957 8.185,-2.676 11.377,-5.406 11.377,-11.223 0,-6.332 -5.713,-10.09 -12.767,-10.09 C 6.487,-10.245 1.596,-6.332 0,0" /></g><g
           transform="translate(424.6348,211.8586)"
           id="g72"><path
             id="path74"
             style="fill:#2b2b2a;fill-opacity:1;fill-rule:nonzero;stroke:none"
             d="M 0,0 H -12.509 V 2.368 H 15.084 V 0 H 2.574 V -35.728 H 0 Z" /></g><g
           transform="translate(446.4541,188.5891)"
           id="g76"><path
             id="path78"
             style="fill:#2b2b2a;fill-opacity:1;fill-rule:nonzero;stroke:none"
             d="M 0,0 V 25.638 H 2.574 V 0.618 c 0,-6.384 3.347,-11.48 10.965,-11.48 7.517,0 10.914,4.89 10.914,11.378 v 25.122 h 2.574 V 0.155 c 0,-7.156 -4.53,-13.334 -13.54,-13.334 C 4.529,-13.179 0,-7.104 0,0" /></g><g
           transform="translate(493.1377,178.4992)"
           id="g80"><path
             id="path82"
             style="fill:#2b2b2a;fill-opacity:1;fill-rule:nonzero;stroke:none"
             d="m 0,0 c 9.729,0 15.495,5.148 15.495,16.68 0,11.377 -5.817,16.679 -15.599,16.679 H -7.156 L -7.156,0 Z m -9.73,35.728 h 9.164 c 12.56,0 18.635,-6.795 18.635,-19.048 0,-12.15 -6.229,-19.048 -18.635,-19.048 H -9.73 Z" /></g><path
           id="path84"
           style="fill:#2b2b2a;fill-opacity:1;fill-rule:nonzero;stroke:none"
           d="m 520.103,214.227 h 2.574 v -38.096 h -2.574 z" /><g
           transform="translate(560.2539,195.1789)"
           id="g86"><path
             id="path88"
             style="fill:#2b2b2a;fill-opacity:1;fill-rule:nonzero;stroke:none"
             d="m 0,0 c 0,10.914 -5.561,17.452 -13.025,17.452 -7.516,0 -13.076,-6.538 -13.076,-17.452 0,-10.914 5.56,-17.452 13.076,-17.452 C -5.561,-17.452 0,-10.914 0,0 m -28.676,0 c 0,11.635 6.436,19.769 15.651,19.769 9.164,0 15.599,-8.134 15.599,-19.769 0,-11.635 -6.435,-19.769 -15.599,-19.769 -9.215,0 -15.651,8.134 -15.651,19.769" /></g><g
           transform="translate(568.7881,185.6555)"
           id="g90"><path
             id="path92"
             style="fill:#2b2b2a;fill-opacity:1;fill-rule:nonzero;stroke:none"
             d="m 0,0 2.522,0.617 c 1.494,-5.663 5.509,-8.546 11.069,-8.546 6.178,0 10.09,3.038 10.09,7.62 0,4.221 -1.75,6.435 -10.553,9.266 -8.494,2.729 -11.995,5.045 -11.995,10.914 0,5.097 4.736,9.421 11.429,9.421 7,0 11.016,-3.655 12.612,-8.958 l -2.471,-0.721 c -1.802,5.355 -5.199,7.363 -10.193,7.363 -5.457,0 -8.803,-3.192 -8.803,-6.951 0,-4.581 2.471,-6.126 11.171,-8.957 8.185,-2.676 11.377,-5.406 11.377,-11.223 0,-6.332 -5.714,-10.09 -12.767,-10.09 C 6.486,-10.245 1.596,-6.332 0,0" /></g><g
           transform="translate(352.6748,172.8352)"
           id="g94"><path
             id="path96"
             style="fill:#fcbf00;fill-opacity:1;fill-rule:nonzero;stroke:none"
             d="m 0,0 h -13.056 v 198.09 l 118.204,67.997 6.509,-11.315 L 0,190.54 Z" /></g><g
           transform="translate(290.4546,176.7473)"
           id="g98"><path
             id="path100"
             style="fill:#008272;fill-opacity:1;fill-rule:nonzero;stroke:none"
             d="M 0,0 C 0.035,0.034 0.109,0.121 0.238,0.284 0.145,0.186 0.068,0.076 -0.015,-0.029 -0.009,-0.018 -0.006,-0.013 0,0 m 7.476,0.792 c 0.732,1.724 1.44,3.457 2.121,5.202 1.366,3.494 2.631,7.027 3.794,10.594 2.354,7.217 4.298,14.566 5.849,21.997 1.602,7.672 2.806,15.418 3.626,23.205 0.11,0.299 0.184,0.611 0.172,0.943 -0.006,0.167 -0.027,0.329 -0.036,0.494 0.697,7.039 1.091,14.107 1.156,21.186 0.011,1.258 -0.002,2.516 -0.01,3.774 0.019,0.084 0.046,0.167 0.06,0.252 0.086,0.543 0.315,1.528 0.567,2.346 0.269,0.873 0.592,1.732 0.969,2.564 0.014,0.01 0.386,0.759 0.439,0.856 0.221,0.406 0.455,0.806 0.7,1.198 0.489,0.785 1.022,1.541 1.592,2.27 1.391,1.776 3.995,4.076 6.185,5.688 0.44,0.03 0.882,0.067 1.328,0.114 0.137,0.014 0.274,0.035 0.411,0.05 0.336,0.039 0.673,0.079 1.012,0.127 0.158,0.023 0.317,0.052 0.475,0.077 0.32,0.049 0.639,0.098 0.96,0.157 0.162,0.029 0.324,0.063 0.486,0.094 0.319,0.063 0.638,0.124 0.958,0.193 0.157,0.034 0.314,0.073 0.47,0.109 0.325,0.074 0.65,0.149 0.974,0.231 0.152,0.039 0.303,0.081 0.455,0.121 0.328,0.087 0.655,0.175 0.981,0.268 0.148,0.043 0.295,0.089 0.442,0.133 0.328,0.099 0.655,0.198 0.98,0.304 0.146,0.048 0.291,0.099 0.437,0.148 0.321,0.109 0.641,0.218 0.958,0.333 0.046,0.017 0.093,0.032 0.138,0.048 -0.004,-10e-4 -0.008,-10e-4 -0.013,-0.002 10.685,3.916 18.979,11.699 11.927,19.169 -3.775,4.115 -7.489,4.832 -10.968,3.554 0.001,0.002 0.003,0.003 0.004,0.005 -0.011,-0.004 -0.021,-0.009 -0.032,-0.013 -0.099,-0.037 -0.198,-0.083 -0.297,-0.123 -0.247,-0.101 -0.493,-0.208 -0.737,-0.328 -0.128,-0.062 -0.256,-0.127 -0.383,-0.194 -0.24,-0.128 -0.48,-0.266 -0.717,-0.411 -0.098,-0.06 -0.198,-0.114 -0.295,-0.177 -0.314,-0.202 -0.625,-0.42 -0.933,-0.649 -0.121,-0.09 -0.241,-0.185 -0.36,-0.279 -0.213,-0.167 -0.424,-0.338 -0.634,-0.517 -0.122,-0.103 -0.244,-0.205 -0.364,-0.313 -0.283,-0.25 -0.563,-0.509 -0.841,-0.78 -0.099,-0.097 -0.198,-0.199 -0.297,-0.299 -0.228,-0.229 -0.455,-0.463 -0.679,-0.705 -0.121,-0.129 -0.24,-0.261 -0.36,-0.394 -0.2,-0.223 -0.398,-0.45 -0.596,-0.681 -0.103,-0.121 -0.208,-0.24 -0.31,-0.363 -0.277,-0.333 -0.55,-0.673 -0.82,-1.019 -0.104,-0.134 -0.206,-0.27 -0.309,-0.406 -0.187,-0.246 -0.373,-0.495 -0.557,-0.747 -0.109,-0.15 -0.219,-0.299 -0.326,-0.451 -0.213,-0.298 -0.423,-0.599 -0.631,-0.902 -0.091,-0.133 -0.182,-0.267 -0.272,-0.401 -0.225,-0.335 -0.448,-0.672 -0.666,-1.012 -0.099,-0.154 -0.196,-0.307 -0.294,-0.461 -0.172,-0.273 -0.342,-0.546 -0.511,-0.82 -0.086,-0.141 -0.174,-0.283 -0.26,-0.424 -0.235,-0.389 -0.467,-0.779 -0.693,-1.167 -0.072,-0.124 -0.142,-0.248 -0.213,-0.371 -0.171,-0.297 -0.339,-0.593 -0.504,-0.888 -0.082,-0.146 -0.163,-0.29 -0.243,-0.436 -0.176,-0.317 -0.348,-0.633 -0.518,-0.948 -0.048,-0.089 -0.097,-0.179 -0.145,-0.267 -0.211,-0.394 -0.416,-0.784 -0.617,-1.17 -0.063,-0.123 -0.125,-0.243 -0.187,-0.364 -0.15,-0.289 -0.296,-0.575 -0.439,-0.858 -0.059,-0.116 -0.118,-0.233 -0.176,-0.347 -0.065,-0.131 -0.129,-0.259 -0.192,-0.387 -2.568,-1.861 -4.917,-3.954 -6.972,-6.399 0,0.009 -0.001,0.018 -0.002,0.027 0.065,0.378 0.062,0.767 -0.056,1.15 -0.01,0.03 -0.022,0.059 -0.032,0.09 -0.493,7.494 -1.308,14.967 -2.449,22.387 1.705,6.869 4.809,12.93 8.847,18.674 0.321,0.245 0.643,0.488 0.966,0.73 0.117,0.088 0.234,0.176 0.351,0.263 0.496,0.369 0.994,0.732 1.494,1.093 0.003,0.002 0.005,0.003 0.008,0.005 0.498,0.358 0.998,0.714 1.5,1.067 0.116,0.081 0.232,0.162 0.347,0.244 0.399,0.279 0.798,0.557 1.198,0.835 0.123,0.085 0.247,0.17 0.37,0.255 0.437,0.302 0.874,0.603 1.312,0.904 0.016,0.011 0.032,0.022 0.048,0.032 0.674,0.463 1.35,0.926 2.027,1.39 0.049,0.034 0.099,0.068 0.149,0.103 0.405,0.277 0.809,0.555 1.214,0.835 0.177,0.121 0.353,0.244 0.53,0.367 0.321,0.222 0.643,0.445 0.965,0.67 0.47,0.328 0.94,0.659 1.41,0.993 1.105,0.786 2.208,1.589 3.308,2.42 6.035,4.546 11.669,14.845 3.561,20.13 l -1.469,1.2 c -4.943,1.297 -9.028,0.085 -12.397,-2.633 -0.06,-0.048 -0.119,-0.096 -0.178,-0.145 -0.28,-0.232 -0.556,-0.473 -0.827,-0.726 -0.017,-0.016 -0.034,-0.033 -0.051,-0.049 -0.256,-0.242 -0.507,-0.493 -0.754,-0.751 -0.053,-0.055 -0.105,-0.11 -0.157,-0.165 -0.258,-0.275 -0.512,-0.559 -0.761,-0.851 -0.026,-0.033 -0.053,-0.066 -0.08,-0.098 -0.228,-0.273 -0.452,-0.553 -0.672,-0.839 -0.044,-0.058 -0.089,-0.114 -0.132,-0.171 -0.237,-0.313 -0.47,-0.634 -0.698,-0.962 -0.033,-0.048 -0.065,-0.096 -0.098,-0.144 -0.205,-0.301 -0.407,-0.606 -0.605,-0.918 -0.036,-0.056 -0.072,-0.112 -0.108,-0.168 -0.217,-0.346 -0.429,-0.698 -0.637,-1.056 -0.035,-0.06 -0.069,-0.121 -0.104,-0.182 -0.187,-0.326 -0.371,-0.658 -0.552,-0.994 -0.028,-0.052 -0.056,-0.103 -0.084,-0.155 -0.198,-0.373 -0.392,-0.752 -0.581,-1.135 -0.034,-0.069 -0.067,-0.137 -0.101,-0.206 -0.175,-0.358 -0.347,-0.72 -0.515,-1.086 -0.017,-0.037 -0.034,-0.074 -0.052,-0.112 -0.18,-0.395 -0.355,-0.794 -0.526,-1.197 -0.034,-0.078 -0.067,-0.158 -0.101,-0.237 -0.163,-0.386 -0.323,-0.775 -0.478,-1.167 -0.008,-0.02 -0.016,-0.04 -0.024,-0.06 -0.163,-0.411 -0.321,-0.826 -0.476,-1.243 -0.031,-0.084 -0.062,-0.168 -0.093,-0.252 -0.305,-0.834 -0.596,-1.676 -0.872,-2.521 -0.028,-0.086 -0.055,-0.171 -0.083,-0.256 -0.136,-0.424 -0.27,-0.849 -0.399,-1.274 -0.001,-0.002 -0.002,-0.005 -0.003,-0.007 -0.128,-0.423 -0.252,-0.844 -0.373,-1.266 -0.023,-0.083 -0.047,-0.166 -0.071,-0.25 -0.12,-0.421 -0.237,-0.842 -0.35,-1.262 -0.008,-0.033 -0.017,-0.066 -0.026,-0.099 -0.105,-0.393 -0.207,-0.786 -0.306,-1.176 -0.021,-0.081 -0.042,-0.162 -0.062,-0.243 -0.104,-0.413 -0.205,-0.824 -0.302,-1.232 -0.013,-0.056 -0.026,-0.111 -0.039,-0.167 -0.086,-0.366 -0.17,-0.729 -0.252,-1.091 -0.018,-0.079 -0.036,-0.159 -0.054,-0.239 -0.089,-0.398 -0.175,-0.794 -0.258,-1.185 -0.014,-0.066 -0.027,-0.131 -0.041,-0.196 -0.06,-0.287 -0.118,-0.571 -0.175,-0.854 -1.831,-2.701 -3.49,-5.526 -4.92,-8.46 -0.108,0.525 -0.219,1.049 -0.33,1.574 -0.011,0.069 -0.008,0.139 -0.023,0.209 -0.035,0.157 -0.079,0.311 -0.118,0.466 -2.067,9.613 -4.681,19.102 -7.817,28.422 1.549,5.445 4.388,10.263 7.113,15.238 0.368,0.152 0.737,0.315 1.108,0.487 0.111,0.051 0.222,0.103 0.332,0.156 0.514,0.245 1.029,0.503 1.545,0.781 0.048,0.026 0.096,0.054 0.144,0.08 0.489,0.267 0.977,0.549 1.464,0.844 0.095,0.057 0.19,0.113 0.285,0.172 0.51,0.313 1.016,0.641 1.519,0.982 0.095,0.065 0.188,0.131 0.283,0.196 0.501,0.346 0.998,0.702 1.488,1.073 0.02,0.015 0.04,0.029 0.06,0.044 0.505,0.384 1.002,0.784 1.492,1.192 0.092,0.077 0.183,0.152 0.274,0.229 0.482,0.409 0.957,0.827 1.421,1.257 0.053,0.05 0.105,0.101 0.159,0.151 0.441,0.413 0.871,0.836 1.291,1.266 0.054,0.055 0.109,0.109 0.163,0.165 0.438,0.454 0.86,0.918 1.271,1.388 0.071,0.081 0.14,0.163 0.21,0.245 0.828,0.967 1.593,1.964 2.28,2.983 0.053,0.079 0.106,0.157 0.159,0.236 0.331,0.501 0.643,1.007 0.933,1.517 0.041,0.072 0.078,0.143 0.118,0.214 0.28,0.502 0.541,1.007 0.778,1.515 0.01,0.022 0.024,0.044 0.034,0.066 -10e-4,-0.001 -0.002,-0.002 -0.003,-0.004 1.003,2.175 1.598,4.391 1.634,6.56 0.105,6.374 -5.606,13.309 -12.318,9.993 -4.012,-1.878 -7.764,-7.873 -9.994,-12.844 0,10e-4 0,10e-4 0,0.002 -0.048,-0.107 -0.09,-0.21 -0.136,-0.316 -0.127,-0.29 -0.255,-0.579 -0.371,-0.859 -0.029,-0.069 -0.053,-0.134 -0.081,-0.203 -0.129,-0.317 -0.256,-0.631 -0.37,-0.933 -0.016,-0.042 -0.028,-0.079 -0.044,-0.12 -0.119,-0.321 -0.234,-0.637 -0.336,-0.936 -0.115,-0.339 -0.218,-0.662 -0.309,-0.969 -1.059,-3.968 -1.812,-8.721 -1.989,-13.139 -1.041,-1.91 -2.137,-3.845 -3.14,-5.722 -0.633,-1.186 -1.247,-2.387 -1.831,-3.601 -0.251,0.66 -0.493,1.322 -0.749,1.979 0.034,0.827 -0.234,1.668 -0.801,2.337 -0.079,0.092 -0.163,0.176 -0.242,0.266 -2.151,5.344 -4.49,10.61 -7.018,15.785 -0.01,0.201 -0.025,0.465 -0.024,0.452 -0.015,0.351 -0.027,0.702 -0.035,1.054 -0.015,0.638 -0.016,1.277 -0.005,1.916 0.022,1.258 0.094,2.516 0.214,3.77 0.125,1.294 0.305,2.581 0.528,3.862 0.087,0.501 0.004,0.043 0.064,0.337 0.056,0.276 0.113,0.551 0.173,0.826 0.143,0.66 0.3,1.317 0.469,1.971 0.623,2.418 1.414,4.791 2.332,7.112 0.345,0.874 0.725,1.732 1.105,2.591 1.271,0.897 2.521,1.856 3.741,2.87 0.144,0.12 0.286,0.245 0.43,0.366 0.502,0.427 0.999,0.863 1.489,1.31 0.17,0.155 0.339,0.312 0.508,0.47 0.477,0.448 0.945,0.906 1.407,1.373 0.144,0.146 0.291,0.29 0.434,0.439 0.581,0.603 1.149,1.219 1.7,1.856 0.008,0.01 0.018,0.019 0.026,0.029 0.579,0.67 1.137,1.361 1.677,2.068 0.019,0.025 0.041,0.049 0.06,0.074 -0.003,-0.001 -0.006,-0.003 -0.009,-0.004 2.666,3.506 4.832,7.468 6.185,11.929 3.023,9.835 -4.114,15.774 -10.663,14.169 0.002,0.003 0.003,0.005 0.005,0.008 -0.21,-0.051 -0.419,-0.111 -0.628,-0.177 -0.083,-0.027 -0.165,-0.06 -0.247,-0.089 -0.186,-0.066 -0.371,-0.138 -0.555,-0.216 -0.096,-0.041 -0.193,-0.083 -0.289,-0.128 -0.244,-0.113 -0.485,-0.235 -0.723,-0.372 -0.064,-0.036 -0.127,-0.079 -0.19,-0.117 -0.195,-0.118 -0.388,-0.244 -0.579,-0.378 -0.082,-0.058 -0.164,-0.116 -0.245,-0.177 -0.236,-0.176 -0.47,-0.362 -0.698,-0.565 -0.041,-0.037 -0.08,-0.079 -0.122,-0.116 -0.199,-0.183 -0.394,-0.377 -0.585,-0.581 -0.066,-0.07 -0.132,-0.141 -0.197,-0.214 -0.221,-0.246 -0.437,-0.503 -0.645,-0.778 -0.021,-0.028 -0.041,-0.058 -0.062,-0.086 -0.192,-0.259 -0.377,-0.533 -0.557,-0.817 -0.052,-0.082 -0.103,-0.165 -0.155,-0.249 -0.193,-0.32 -0.381,-0.65 -0.558,-1.001 -0.008,-0.015 -0.014,-0.031 -0.022,-0.047 -0.17,-0.339 -0.328,-0.697 -0.481,-1.066 -0.041,-0.098 -0.08,-0.197 -0.12,-0.296 C 2.4,251.915 2.252,251.511 2.117,251.084 1.831,250.11 1.569,249.156 1.329,248.219 1.25,247.912 1.187,247.617 1.112,247.313 0.96,246.691 0.806,246.067 0.673,245.462 c -0.076,-0.348 -0.139,-0.683 -0.21,-1.025 -0.112,-0.544 -0.227,-1.09 -0.325,-1.619 -0.066,-0.355 -0.119,-0.695 -0.179,-1.044 -0.086,-0.5 -0.175,-1.003 -0.249,-1.489 -0.053,-0.346 -0.096,-0.679 -0.143,-1.017 -0.066,-0.472 -0.133,-0.945 -0.19,-1.404 -0.04,-0.33 -0.073,-0.647 -0.108,-0.97 -0.05,-0.45 -0.101,-0.899 -0.142,-1.335 -0.029,-0.31 -0.052,-0.608 -0.078,-0.91 -0.036,-0.434 -0.072,-0.865 -0.102,-1.284 -0.02,-0.284 -0.035,-0.558 -0.052,-0.836 -0.026,-0.421 -0.051,-0.838 -0.07,-1.244 -0.012,-0.253 -0.022,-0.497 -0.033,-0.744 -0.017,-0.42 -0.033,-0.833 -0.045,-1.236 -0.007,-0.209 -0.012,-0.41 -0.018,-0.614 0,-0.024 0,-0.047 -0.001,-0.07 -2.186,-4.422 -4.059,-9.004 -5.265,-13.796 -0.387,-1.539 -0.698,-3.082 -0.946,-4.629 -1.135,2.032 -2.29,4.053 -3.488,6.049 -0.912,1.519 -1.844,3.025 -2.791,4.521 0.663,4.692 0.534,10.185 -0.555,15.434 -0.005,-0.121 -0.023,-0.243 -0.032,-0.366 -0.054,0.569 -0.137,1.08 -0.216,1.44 -0.227,0.818 -0.478,1.625 -0.755,2.417 -1.076,2.747 -2.752,5.25 -4.115,7.882 -2.168,2.856 -4.923,5.08 -8.333,6.267 -9.002,3.249 -12.484,-4.516 -10.936,-12.288 0.058,-0.317 0.124,-0.633 0.194,-0.948 0.2,-0.554 0.428,-1.096 0.675,-1.631 -0.11,0.19 -0.23,0.376 -0.334,0.569 2.33,-7.005 7.472,-13.303 13.144,-17.466 1.822,-1.297 3.433,-2.465 5.046,-3.553 0.057,-0.158 0.117,-0.316 0.211,-0.464 5.419,-8.551 10.235,-17.474 14.482,-26.661 -3.549,1.848 -7.373,3.231 -11.244,4.256 -0.404,0.346 -0.817,0.687 -1.24,1.022 -0.096,0.077 -0.195,0.15 -0.292,0.226 -0.43,0.336 -0.869,0.666 -1.315,0.99 -0.152,0.11 -0.304,0.219 -0.458,0.328 -0.475,0.336 -0.957,0.665 -1.447,0.987 -0.076,0.049 -0.15,0.101 -0.225,0.15 -0.567,0.366 -1.143,0.72 -1.724,1.063 -0.142,0.084 -0.285,0.164 -0.428,0.247 -0.464,0.268 -0.93,0.528 -1.401,0.78 -0.151,0.081 -0.302,0.163 -0.454,0.243 -0.598,0.312 -1.198,0.615 -1.801,0.899 -0.007,0.004 -0.014,0.007 -0.021,0.011 10e-4,-0.001 0.002,-0.002 0.003,-0.003 -10.148,4.779 -20.874,5.475 -22.566,-3.117 -0.963,-4.591 1.314,-7.532 5.139,-9.294 -0.006,0.001 -0.012,0.002 -0.018,0.002 0.023,-0.01 0.049,-0.018 0.071,-0.028 0.446,-0.203 0.909,-0.392 1.394,-0.564 0.024,-0.009 0.05,-0.016 0.075,-0.025 0.449,-0.157 0.916,-0.3 1.395,-0.432 0.113,-0.032 0.227,-0.062 0.342,-0.092 0.431,-0.112 0.872,-0.215 1.322,-0.309 0.092,-0.019 0.18,-0.04 0.273,-0.058 0.553,-0.11 1.117,-0.208 1.694,-0.291 0.009,-0.001 0.019,-0.002 0.028,-0.004 0.549,-0.078 1.108,-0.142 1.672,-0.198 0.129,-0.013 0.258,-0.024 0.387,-0.036 0.483,-0.043 0.969,-0.078 1.459,-0.106 0.109,-0.006 0.218,-0.014 0.328,-0.019 0.604,-0.03 1.21,-0.051 1.819,-0.059 h 0.007 c 0.587,-0.008 1.175,-0.003 1.762,0.009 0.144,0.003 0.287,0.007 0.431,0.011 0.475,0.013 0.948,0.031 1.42,0.055 0.131,0.007 0.262,0.012 0.393,0.02 0.593,0.034 1.183,0.075 1.766,0.126 l 0.027,0.003 c 0.56,0.05 1.112,0.108 1.658,0.172 0.151,0.017 0.3,0.036 0.45,0.055 0.421,0.052 0.836,0.109 1.246,0.169 0.144,0.021 0.288,0.041 0.43,0.063 0.53,0.082 1.052,0.169 1.556,0.263 0.013,0.003 0.026,0.005 0.039,0.008 0.486,0.091 0.954,0.188 1.412,0.288 0.14,0.031 0.275,0.063 0.412,0.095 0.239,0.055 0.476,0.111 0.705,0.168 0.448,-0.117 0.899,-0.219 1.344,-0.347 2.282,-0.657 4.528,-1.448 6.707,-2.395 3.803,-1.651 7.618,-4.08 10.572,-7.181 0.137,-0.342 0.282,-0.681 0.417,-1.025 1.283,-3.256 2.486,-6.543 3.634,-9.849 0.034,-0.702 0.25,-1.372 0.658,-1.916 0.091,-0.273 0.182,-0.546 0.272,-0.818 0.316,-0.958 0.625,-1.918 0.93,-2.879 0.558,-1.765 1.097,-3.536 1.617,-5.313 0.275,-0.94 0.529,-1.885 0.794,-2.828 -1.893,1.501 -3.891,2.853 -5.979,4.055 -0.009,0.013 -0.018,0.026 -0.028,0.04 -0.113,0.167 -0.231,0.332 -0.348,0.498 -0.152,0.216 -0.303,0.432 -0.46,0.647 -0.12,0.163 -0.244,0.325 -0.367,0.488 -0.162,0.213 -0.323,0.426 -0.489,0.637 -0.126,0.16 -0.256,0.318 -0.385,0.477 -0.171,0.21 -0.343,0.42 -0.519,0.628 -0.131,0.155 -0.265,0.308 -0.399,0.462 -0.181,0.208 -0.364,0.414 -0.55,0.619 -0.135,0.149 -0.271,0.296 -0.408,0.443 -0.193,0.206 -0.388,0.411 -0.585,0.614 -0.137,0.14 -0.274,0.28 -0.414,0.418 -0.204,0.204 -0.41,0.407 -0.619,0.607 -0.139,0.133 -0.279,0.266 -0.42,0.398 -0.215,0.2 -0.432,0.398 -0.651,0.594 -0.141,0.125 -0.281,0.25 -0.423,0.374 -0.227,0.198 -0.457,0.392 -0.688,0.585 -0.139,0.116 -0.279,0.232 -0.419,0.347 -0.241,0.195 -0.486,0.386 -0.731,0.576 -0.136,0.105 -0.271,0.211 -0.407,0.314 -0.258,0.194 -0.518,0.383 -0.78,0.57 -0.13,0.093 -0.259,0.188 -0.39,0.279 -0.275,0.192 -0.554,0.378 -0.833,0.562 -0.122,0.08 -0.242,0.162 -0.364,0.241 -0.299,0.193 -0.602,0.378 -0.906,0.562 -0.088,0.053 -0.174,0.11 -0.263,0.163 0.002,-0.003 0.005,-0.005 0.007,-0.007 -6.047,3.585 -12.902,5.296 -19.364,3.586 -11.617,-3.005 -9.716,-10.584 -2.21,-15.902 -0.007,0.002 -0.013,0.004 -0.019,0.006 0.04,-0.028 0.084,-0.054 0.124,-0.082 0.401,-0.281 0.814,-0.557 1.246,-0.824 0.013,-0.009 0.026,-0.018 0.041,-0.026 0.455,-0.282 0.929,-0.552 1.416,-0.815 0.105,-0.057 0.214,-0.111 0.32,-0.167 0.38,-0.2 0.767,-0.393 1.164,-0.581 0.143,-0.068 0.286,-0.134 0.431,-0.2 0.405,-0.185 0.819,-0.361 1.24,-0.532 0.114,-0.046 0.225,-0.095 0.34,-0.14 0.535,-0.21 1.079,-0.408 1.635,-0.593 0.1,-0.033 0.203,-0.062 0.304,-0.095 0.454,-0.146 0.913,-0.284 1.38,-0.413 0.178,-0.049 0.358,-0.095 0.538,-0.142 0.415,-0.107 0.835,-0.206 1.258,-0.297 0.176,-0.039 0.351,-0.079 0.528,-0.115 0.589,-0.117 1.182,-0.225 1.783,-0.311 5.734,-0.825 12.406,-1.098 18.454,-0.77 1.834,-1.131 3.885,-2.596 5.238,-3.746 0.51,-0.433 1.632,-1.497 2.327,-2.233 0.815,-0.862 1.582,-1.77 2.278,-2.731 0.029,-0.039 0.22,-0.322 0.307,-0.447 0.087,-0.141 0.22,-0.354 0.241,-0.389 0.315,-0.523 0.607,-1.061 0.87,-1.612 0.186,-0.389 0.347,-0.788 0.503,-1.188 0.038,-0.117 0.159,-0.461 0.172,-0.503 0.031,-0.112 0.055,-0.226 0.084,-0.339 0.267,-1.244 0.538,-2.488 0.786,-3.735 1.339,-6.715 2.395,-13.486 3.195,-20.287 -0.321,0.321 -0.64,0.643 -0.971,0.951 -2.995,2.796 -6.295,5.211 -9.89,7.133 -2.339,3.223 -5.391,5.947 -7.151,7.517 -0.266,0.229 -0.543,0.464 -0.829,0.702 -0.074,0.061 -0.154,0.124 -0.23,0.187 -0.217,0.177 -0.436,0.355 -0.663,0.536 -0.086,0.067 -0.176,0.135 -0.262,0.202 -0.227,0.177 -0.454,0.353 -0.689,0.53 -0.089,0.067 -0.183,0.133 -0.273,0.2 -0.24,0.178 -0.48,0.354 -0.728,0.53 -0.094,0.065 -0.19,0.13 -0.284,0.195 -0.251,0.175 -0.503,0.348 -0.76,0.518 -0.099,0.066 -0.202,0.129 -0.302,0.195 -0.257,0.166 -0.516,0.332 -0.779,0.493 -0.106,0.065 -0.213,0.126 -0.32,0.19 -0.262,0.157 -0.526,0.312 -0.793,0.461 -0.113,0.063 -0.227,0.123 -0.341,0.184 -0.263,0.143 -0.526,0.283 -0.793,0.417 -0.041,0.02 -0.08,0.043 -0.12,0.063 0.003,-0.004 0.006,-0.007 0.01,-0.01 -2.892,1.435 -5.976,2.318 -8.855,1.86 -7.526,-1.197 -8.752,-7.182 -6.132,-11.893 1.434,-2.579 3.892,-4.35 6.798,-5.571 h -10e-4 c 0.002,0 0.004,-10e-4 0.006,-0.002 2.31,-0.97 4.902,-1.593 7.494,-1.99 0.003,-0.001 0.005,-0.001 0.007,-0.001 0.368,-0.057 0.735,-0.109 1.103,-0.157 0.002,0 0.004,0 0.006,-0.001 0.735,-0.096 1.467,-0.176 2.188,-0.241 0.011,-10e-4 0.021,-0.002 0.031,-0.002 0.333,-0.031 0.662,-0.058 0.989,-0.082 0.045,-0.004 0.09,-0.007 0.136,-0.01 0.32,-0.024 0.636,-0.045 0.95,-0.064 0.019,-10e-4 0.038,-0.003 0.057,-0.004 0.338,-0.019 0.673,-0.037 1.003,-0.052 0.026,-0.001 0.051,-0.002 0.077,-0.003 0.283,-0.013 0.562,-0.025 0.837,-0.034 0.086,-0.003 0.17,-0.005 0.255,-0.008 0.224,-0.008 0.445,-0.014 0.662,-0.02 0.082,-0.002 0.163,-0.005 0.244,-0.007 0.283,-0.005 0.564,-0.011 0.836,-0.016 l 2.586,-0.07 c 0.307,-0.156 0.616,-0.309 0.918,-0.474 0.993,-0.539 1.961,-1.122 2.906,-1.741 0.983,-0.645 1.939,-1.329 2.868,-2.049 0.449,-0.349 0.891,-0.706 1.327,-1.071 0.066,-0.055 0.086,-0.07 0.086,-0.069 0.028,-0.026 0.071,-0.065 0.153,-0.139 0.255,-0.229 0.509,-0.458 0.76,-0.691 1.679,-1.565 3.237,-3.272 4.583,-5.135 0.069,-0.096 0.196,-0.278 0.244,-0.342 0.146,-0.223 0.29,-0.448 0.429,-0.674 0.274,-0.449 0.535,-0.906 0.778,-1.371 0.238,-0.454 0.46,-0.917 0.664,-1.388 0.12,-0.278 0.228,-0.559 0.339,-0.84 0.021,-0.053 0.032,-0.078 0.045,-0.11 0.004,-0.015 0.01,-0.037 0.017,-0.06 0.225,-3.611 0.363,-7.243 0.427,-11.112 0.075,-4.558 0.008,-9.117 -0.173,-13.673 -1.208,1.557 -2.528,3.014 -3.915,4.411 -0.06,0.171 -0.122,0.342 -0.186,0.512 -0.045,0.122 -0.084,0.243 -0.132,0.364 -0.206,0.528 -0.43,1.055 -0.67,1.578 -0.068,0.147 -0.143,0.291 -0.213,0.438 -0.181,0.38 -0.368,0.759 -0.567,1.134 -0.1,0.191 -0.205,0.379 -0.309,0.568 -0.185,0.334 -0.374,0.664 -0.57,0.993 -0.115,0.191 -0.229,0.382 -0.348,0.571 -0.211,0.34 -0.431,0.674 -0.654,1.006 -0.11,0.164 -0.216,0.328 -0.328,0.49 -0.332,0.478 -0.675,0.95 -1.029,1.41 C 8.42,90.943 8.344,91.03 8.272,91.122 7.98,91.494 7.683,91.861 7.377,92.22 7.235,92.388 7.088,92.549 6.943,92.714 6.699,92.99 6.452,93.263 6.201,93.529 6.04,93.7 5.879,93.868 5.715,94.034 5.464,94.29 5.21,94.539 4.954,94.784 c -0.161,0.154 -0.32,0.309 -0.483,0.457 -0.307,0.282 -0.619,0.552 -0.932,0.817 -0.113,0.095 -0.224,0.196 -0.337,0.29 -0.006,0.004 -0.012,0.009 -0.017,0.014 0.002,-0.002 0.003,-0.004 0.004,-0.005 -1.381,1.13 -2.811,2.09 -4.245,2.824 -8.651,4.422 -14.343,-3.533 -11.465,-10.35 l -0.006,0.003 c 0.007,-0.019 0.018,-0.036 0.026,-0.054 0.089,-0.208 0.191,-0.414 0.297,-0.619 0.042,-0.083 0.08,-0.166 0.125,-0.249 0.111,-0.202 0.237,-0.402 0.365,-0.601 0.052,-0.082 0.1,-0.166 0.155,-0.248 0.133,-0.194 0.28,-0.383 0.428,-0.573 0.066,-0.084 0.125,-0.169 0.193,-0.252 0.152,-0.182 0.321,-0.36 0.489,-0.539 0.079,-0.084 0.152,-0.17 0.234,-0.252 0.174,-0.173 0.364,-0.34 0.554,-0.507 0.093,-0.081 0.177,-0.166 0.273,-0.245 0.197,-0.163 0.411,-0.318 0.625,-0.474 0.104,-0.077 0.201,-0.158 0.31,-0.233 0.231,-0.16 0.482,-0.31 0.732,-0.462 0.105,-0.063 0.201,-0.131 0.31,-0.193 0.366,-0.209 0.749,-0.408 1.153,-0.597 4.284,-2.003 9.616,-3.498 14.496,-4.938 1.77,-1.742 3.455,-3.571 4.906,-5.589 0.021,-0.03 0.169,-0.242 0.242,-0.344 0.065,-0.102 0.21,-0.325 0.23,-0.356 0.243,-0.388 0.477,-0.781 0.699,-1.181 0.443,-0.8 0.839,-1.624 1.177,-2.474 0.016,-0.039 0.119,-0.307 0.159,-0.407 0.034,-0.106 0.122,-0.374 0.134,-0.415 0.133,-0.446 0.249,-0.896 0.348,-1.351 C 16.291,64.96 16.411,64.1 16.462,63.485 15.888,57.691 15.101,51.919 14.082,46.187 14.003,45.748 13.924,45.31 13.843,44.871 13.811,44.695 13.778,44.52 13.746,44.344 13.73,44.263 13.696,44.086 13.69,44.055 13.5,43.071 13.306,42.089 13.104,41.108 12.722,39.259 12.315,37.413 11.885,35.574 11.052,32.013 10.126,28.474 9.105,24.961 7.027,17.807 4.559,10.765 1.686,3.891 1.346,3.078 1.003,2.267 0.649,1.46 0.618,1.388 0.601,1.347 0.591,1.324 0.557,1.25 0.516,1.164 0.462,1.049 0.333,0.774 0.2,0.503 0.081,0.224 0.061,0.179 0.042,0.133 0.022,0.087 0.012,0.064 0.008,0.054 -0.001,0.033 -0.014,0.01 -0.015,0.003 -0.017,-0.004 c -0.008,-0.02 -0.019,-0.045 -0.026,-0.06 -0.966,-1.273 -1.136,-2.995 0.009,-4.283 1.099,-1.235 3.409,-1.568 4.632,-0.272 1.571,1.668 2.029,3.416 2.878,5.411" /></g></g></g></g></svg>